<svg class="svg-icon" style="width: 1em; height: 1em;vertical-align: middle;fill: currentColor;overflow: hidden;" viewBox="0 0 1024 1024" version="1.1" xmlns="http://www.w3.org/2000/svg"> <circle cx="512" cy="512" r="1000" fill="white" /> <path d="M636.058705 494.540432a228.374101 228.374101 0 1 0-233.383597 0C268.965755 557.895827 173.122302 726.671655 173.122302 924.546763a29.467626 29.467626 0 0 0 58.935252 0c0-219.386475 128.920863-397.81295 287.309352-397.81295s287.309353 178.426475 287.309353 397.81295a29.467626 29.467626 0 0 0 58.935252 0c0-197.875108-95.843453-366.650935-229.552806-430.006331zM349.928058 298.359712a169.438849 169.438849 0 1 1 169.438848 169.438849 169.438849 169.438849 0 0 1-169.438848-169.438849z" fill="#333333" /> <path d="M268.892086 457.853237a29.467626 29.467626 0 0 0-29.467626-29.467625 90.833957 90.833957 0 1 1 0-181.594245 29.467626 29.467626 0 0 0 0-58.935252 149.548201 149.548201 0 0 0-92.675683 267.124029C71.090647 500.94964 18.417266 600.550216 18.417266 716.210647a29.467626 29.467626 0 0 0 58.935252 0c0-126.195108 72.711367-228.889784 162.071942-228.889784a29.467626 29.467626 0 0 0 29.467626-29.467626zM877.251223 454.980144A149.548201 149.548201 0 0 0 784.57554 187.856115a29.467626 29.467626 0 0 0 0 58.935252 90.833957 90.833957 0 1 1 0 181.594245 29.467626 29.467626 0 1 0 0 58.935251c89.360576 0 162.071942 102.694676 162.071942 228.889784a29.467626 29.467626 0 0 0 58.935252 0c0-115.660432-52.673381-215.261007-128.331511-261.230503z" fill="#333333" /> </svg>